<svg width="37" height="32" viewBox="0 0 37 32" fill="none" xmlns="http://www.w3.org/2000/svg">
<path d="M34.3626 4.58333C34.3626 3.475 33.5861 2.66667 32.4791 2.66667H16.4285C16.1972 2.66667 16.0733 2.61667 15.9246 2.46667L14.0659 0.591667L14.0494 0.575C13.6446 0.191667 13.3142 0 12.6203 0H4.68167C3.54168 0 2.64126 0.858333 2.64126 1.91667V8H34.3626V4.58333ZM2.64126 10.3333H1.95562C0.898241 10.3333 -0.134354 10.7583 0.01434 12.3583C0.163034 13.9583 1.95562 29.9167 1.95562 29.9167C2.17866 31.4 2.92213 32 4.02081 32H33.14C34.1891 32 34.8747 31.35 35.04 29.9167C35.04 29.9167 36.8738 14.5083 36.9895 12.7917C37.1051 11.0833 36.2543 10.3333 35.04 10.3333H2.64126Z" fill="#D3C9BE"/>
</svg>
