<svg width="26" height="26" viewBox="0 0 26 26" fill="none" xmlns="http://www.w3.org/2000/svg">
<path d="M13 0C10.4288 0 7.91543 0.762436 5.77759 2.19089C3.63975 3.61935 1.97351 5.64967 0.989572 8.02511C0.00563272 10.4006 -0.251811 13.0144 0.249797 15.5362C0.751405 18.0579 1.98953 20.3743 3.80762 22.1924C5.6257 24.0105 7.94208 25.2486 10.4638 25.7502C12.9856 26.2518 15.5994 25.9944 17.9749 25.0104C20.3503 24.0265 22.3806 22.3602 23.8091 20.2224C25.2376 18.0846 26 15.5712 26 13C25.9962 9.55336 24.6253 6.24898 22.1882 3.81183C19.751 1.37469 16.4466 0.00382323 13 0ZM13 24.2667C10.7717 24.2667 8.59337 23.6059 6.74058 22.3679C4.88779 21.1299 3.44371 19.3703 2.59096 17.3116C1.73822 15.2528 1.5151 12.9875 1.94982 10.802C2.38455 8.61646 3.4576 6.60893 5.03327 5.03326C6.60894 3.45759 8.61647 2.38455 10.802 1.94982C12.9875 1.51509 15.2529 1.73821 17.3116 2.59096C19.3703 3.4437 21.1299 4.88778 22.3679 6.74057C23.6059 8.59337 24.2667 10.7717 24.2667 13C24.2667 15.9881 23.0796 18.8538 20.9667 20.9667C18.8538 23.0796 15.9881 24.2667 13 24.2667Z" fill="white"/>
<path d="M13.0002 6.35562C13.0002 6.12576 12.9089 5.90532 12.7463 5.74279C12.5838 5.58026 12.3634 5.48895 12.1335 5.48895C11.9037 5.48895 11.6832 5.58026 11.5207 5.74279C11.3582 5.90532 11.2668 6.12576 11.2668 6.35562V14.1556C11.2668 14.3855 11.3582 14.6059 11.5207 14.7684C11.6832 14.931 11.9037 15.0223 12.1335 15.0223H20.2224C20.4523 15.0223 20.6727 14.931 20.8352 14.7684C20.9978 14.6059 21.0891 14.3855 21.0891 14.1556C21.0891 13.9258 20.9978 13.7053 20.8352 13.5428C20.6727 13.3803 20.4523 13.289 20.2224 13.289H13.0002V6.35562Z" fill="white"/>
</svg>
