<svg width="26" height="32" viewBox="0 0 26 32" fill="none" xmlns="http://www.w3.org/2000/svg">
<path d="M20 2.39C20 1.84 20.32 1.7 20.71 2.09L24 5.3C24.39 5.68 24.26 6 23.71 6H21C20.7348 6 20.4804 5.89464 20.2929 5.70711C20.1054 5.51957 20 5.26522 20 5V2.39ZM0 29V3C0 2.20435 0.316072 1.44129 0.878681 0.878681C1.44129 0.316072 2.20435 0 3 0H16C16.2652 0 16.5196 0.105356 16.7071 0.292892C16.8946 0.480429 17 0.734784 17 1V6C17 6.79565 17.3161 7.55871 17.8787 8.12132C18.4413 8.68393 19.2044 9 20 9H25C25.2652 9 25.5196 9.10536 25.7071 9.29289C25.8946 9.48043 26 9.73478 26 10V29C26 29.7956 25.6839 30.5587 25.1213 31.1213C24.5587 31.6839 23.7956 32 23 32H3C2.20435 32 1.44129 31.6839 0.878681 31.1213C0.316072 30.5587 0 29.7956 0 29Z" fill="#D3C9BE"/>
</svg>
