<svg width="14" height="10" viewBox="0 0 14 10" fill="none" xmlns="http://www.w3.org/2000/svg">
<path d="M14 4.92566C13.9903 4.81532 13.9441 4.66801 13.8704 4.58539L9.9815 0.17796C9.81186 -0.0523454 9.4621 -0.0515869 9.24683 0.13677C9.03157 0.325127 9.01516 0.659807 9.20372 0.858516L12.3391 4.40715H0.518519C0.232167 4.40715 0 4.63929 0 4.92566C0 5.21204 0.232167 5.44418 0.518519 5.44418H12.3391L9.20372 8.9928C8.99797 9.19149 9.05583 9.53225 9.2711 9.7206C9.48637 9.90896 9.81186 9.89554 9.9815 9.67335L13.8704 5.26594C13.9743 5.15335 13.9942 5.03116 14 4.92566Z" fill="#DB4028"/>
</svg>
