<svg width="14" height="10" viewBox="0 0 14 10" fill="none" xmlns="http://www.w3.org/2000/svg">
<path d="M-1.52588e-05 4.92566C0.00970697 4.81532 0.0558802 4.66801 0.129611 4.58539L4.0185 0.17796C4.18814 -0.0523454 4.5379 -0.0515869 4.75317 0.13677C4.96843 0.325127 4.98484 0.659807 4.79628 0.858516L1.66086 4.40715H13.4815C13.7678 4.40715 14 4.63929 14 4.92566C14 5.21204 13.7678 5.44418 13.4815 5.44418H1.66086L4.79628 8.9928C5.00203 9.19149 4.94417 9.53225 4.7289 9.7206C4.51363 9.90896 4.18814 9.89554 4.0185 9.67335L0.129607 5.26594C0.0256675 5.15335 0.00583623 5.03116 -1.52588e-05 4.92566Z" fill="#DB4028"/>
</svg>
