<svg width="14" height="10" viewBox="0 0 14 10" fill="none" xmlns="http://www.w3.org/2000/svg">
<path d="M14 5.07434C13.9903 5.18468 13.9441 5.33199 13.8704 5.41461L9.9815 9.82204C9.81186 10.0523 9.4621 10.0516 9.24683 9.86323C9.03157 9.67487 9.01516 9.34019 9.20372 9.14148L12.3391 5.59285H0.518519C0.232167 5.59285 0 5.36071 0 5.07434C0 4.78796 0.232167 4.55582 0.518519 4.55582H12.3391L9.20372 1.0072C8.99797 0.808506 9.05583 0.467748 9.2711 0.279396C9.48637 0.0910444 9.81186 0.104461 9.9815 0.326647L13.8704 4.73406C13.9743 4.84665 13.9942 4.96884 14 5.07434Z" fill="#DB4028"/>
</svg>
