<svg width="14" height="15" viewBox="0 0 14 15" fill="none" xmlns="http://www.w3.org/2000/svg">
<path d="M0.259696 13.7498C0.424191 13.9128 0.646708 14.0043 0.87865 14.0043C1.11059 14.0043 1.33311 13.9128 1.4976 13.7498L7.02868 8.23733L12.551 13.7411C12.7189 13.8844 12.935 13.9593 13.1559 13.9508C13.3769 13.9423 13.5865 13.851 13.7429 13.6952C13.8992 13.5394 13.9908 13.3305 13.9993 13.1103C14.0079 12.89 13.9327 12.6747 13.7889 12.5073L8.26659 7.00358L13.7889 1.49983C13.9327 1.33244 14.0079 1.11712 13.9993 0.896908C13.9908 0.676692 13.8992 0.467795 13.7429 0.311962C13.5865 0.156129 13.3769 0.0648389 13.1559 0.0563329C12.935 0.0478268 12.7189 0.122732 12.551 0.26608L7.02868 5.76983L1.50638 0.25733C1.34106 0.0925643 1.11684 -1.73609e-09 0.88304 0C0.64924 1.73609e-09 0.425017 0.0925643 0.259696 0.25733C0.0943748 0.422096 0.00149852 0.645566 0.00149852 0.87858C0.00149852 1.11159 0.0943748 1.33506 0.259696 1.49983L5.79078 7.00358L0.259696 12.5073C0.177407 12.5887 0.112093 12.6854 0.0675206 12.7921C0.0229483 12.8987 0 13.0131 0 13.1286C0 13.2441 0.0229483 13.3585 0.0675206 13.4651C0.112093 13.5717 0.177407 13.6685 0.259696 13.7498Z" fill="#DB4028"/>
</svg>
