<svg width="18" height="18" viewBox="0 0 18 18" fill="none" xmlns="http://www.w3.org/2000/svg">
<path d="M4.82822 9.48186C4.62262 9.31318 4.35472 9.22165 4.07825 9.22565C3.80178 9.22965 3.53718 9.32887 3.33755 9.50341C3.13792 9.67795 3.018 9.9149 3.00187 10.1667C2.98573 10.4186 3.07457 10.6666 3.25055 10.8612L5.68279 13.1901C5.78462 13.2876 5.90698 13.3653 6.04254 13.4185C6.17809 13.4718 6.32404 13.4995 6.47162 13.5C6.61842 13.5008 6.7639 13.4746 6.89941 13.4231C7.03491 13.3716 7.1577 13.2958 7.26045 13.2001L14.6886 6.20339C14.7894 6.10889 14.8687 5.99721 14.9221 5.87473C14.9755 5.75226 15.0019 5.62138 14.9999 5.48959C14.9979 5.35779 14.9674 5.22765 14.9102 5.10659C14.8531 4.98554 14.7703 4.87594 14.6667 4.78406C14.5631 4.69218 14.4407 4.61981 14.3065 4.57109C14.1722 4.52236 14.0288 4.49824 13.8843 4.5001C13.7398 4.50196 13.5972 4.52975 13.4645 4.58191C13.3318 4.63406 13.2117 4.70954 13.111 4.80405L6.48258 11.0611L4.82822 9.48186Z" fill="#DB4028"/>
</svg>
